<svg width="728" height="777" viewBox="0 0 728 777" fill="none" xmlns="http://www.w3.org/2000/svg">
<g opacity="0.05">
<g clip-path="url(#clip0)">
<path d="M256.128 646.569H199.13V779.868H256.128V646.569Z" fill="#333333"/>
<path d="M225.038 639.844H199.13V647.431H225.038V639.844Z" fill="#333333"/>
<path d="M214.157 635.532H199.13V639.844H214.157V635.532Z" fill="#333333"/>
<path opacity="0.06" d="M232.293 655.881H222.966V662.779H232.293V655.881Z" fill="white"/>
<path opacity="0.12" d="M232.293 672.953H222.966V679.85H232.293V672.953Z" fill="white"/>
<path opacity="0.19" d="M232.293 707.097H222.966V713.995H232.293V707.097Z" fill="white"/>
<path opacity="0.14" d="M232.293 741.241H222.966V748.139H232.293V741.241Z" fill="white"/>
<path opacity="0.1" d="M232.293 758.313H222.966V765.211H232.293V758.313Z" fill="white"/>
<path d="M113.116 661.054H35.0461V732.446H113.116V661.054Z" fill="#333333"/>
<path d="M100.853 654.673H47.482V685.368H100.853V654.673Z" fill="#333333"/>
<path d="M118.815 706.062H40.7458V777.454H118.815V706.062Z" fill="#333333"/>
<path d="M106.38 699.681H53.009V730.376H106.38V699.681Z" fill="#333333"/>
<path d="M222.793 696.577H144.724V778.833H222.793V696.577Z" fill="#333333"/>
<path d="M210.53 689.334H157.159V724.858H210.53V689.334Z" fill="#333333"/>
<path d="M484.119 721.582H406.049V801.079H484.119V721.582Z" fill="#333333"/>
<path d="M471.856 714.512H418.485V748.828H471.856V714.512Z" fill="#333333"/>
<path d="M314.853 557.415H227.629V778.661H314.853V557.415Z" fill="#333333"/>
<path opacity="0.46" d="M253.019 567.417H231.947V571.383H253.019V567.417Z" fill="#E6E6E6"/>
<path opacity="0.34" d="M281.863 567.417H260.792V571.383H281.863V567.417Z" fill="#E6E6E6"/>
<path opacity="0.52" d="M310.535 567.417H289.463V571.383H310.535V567.417Z" fill="#E6E6E6"/>
<path opacity="0.54" d="M253.019 576.557H231.947V580.523H253.019V576.557Z" fill="#E6E6E6"/>
<path opacity="0.3" d="M281.863 576.557H260.792V580.523H281.863V576.557Z" fill="#E6E6E6"/>
<path opacity="0.06" d="M310.535 576.557H289.463V580.523H310.535V576.557Z" fill="#E6E6E6"/>
<path opacity="0.15" d="M253.019 585.696H231.947V589.662H253.019V585.696Z" fill="#E6E6E6"/>
<path opacity="0.42" d="M281.863 585.696H260.792V589.662H281.863V585.696Z" fill="#E6E6E6"/>
<path opacity="0.48" d="M310.535 585.696H289.463V589.662H310.535V585.696Z" fill="#E6E6E6"/>
<path opacity="0.18" d="M253.019 594.835H231.947V598.802H253.019V594.835Z" fill="#E6E6E6"/>
<path opacity="0.28" d="M310.535 594.835H289.463V598.802H310.535V594.835Z" fill="#E6E6E6"/>
<path opacity="0.29" d="M253.019 603.975H231.947V607.941H253.019V603.975Z" fill="#E6E6E6"/>
<path opacity="0.28" d="M281.863 603.975H260.792V607.941H281.863V603.975Z" fill="#E6E6E6"/>
<path opacity="0.56" d="M310.535 603.975H289.463V607.941H310.535V603.975Z" fill="#E6E6E6"/>
<path opacity="0.41" d="M253.019 613.115H231.947V617.081H253.019V613.115Z" fill="#E6E6E6"/>
<path opacity="0.16" d="M281.863 613.115H260.792V617.081H281.863V613.115Z" fill="#E6E6E6"/>
<path opacity="0.4" d="M310.535 613.115H289.463V617.081H310.535V613.115Z" fill="#E6E6E6"/>
<path opacity="0.1" d="M253.019 622.254H231.947V626.221H253.019V622.254Z" fill="#E6E6E6"/>
<path opacity="0.17" d="M281.863 622.254H260.792V626.221H281.863V622.254Z" fill="#E6E6E6"/>
<path opacity="0.08" d="M310.535 622.254H289.463V626.221H310.535V622.254Z" fill="#E6E6E6"/>
<path opacity="0.49" d="M253.019 631.394H231.947V635.36H253.019V631.394Z" fill="#E6E6E6"/>
<path opacity="0.58" d="M281.863 631.394H260.792V635.36H281.863V631.394Z" fill="#E6E6E6"/>
<path opacity="0.58" d="M310.535 631.394H289.463V635.36H310.535V631.394Z" fill="#E6E6E6"/>
<path opacity="0.26" d="M253.019 640.533H231.947V644.5H253.019V640.533Z" fill="#E6E6E6"/>
<path opacity="0.37" d="M281.863 640.533H260.792V644.5H281.863V640.533Z" fill="#E6E6E6"/>
<path opacity="0.34" d="M310.535 640.533H289.463V644.5H310.535V640.533Z" fill="#E6E6E6"/>
<path opacity="0.55" d="M253.019 649.673H231.947V653.639H253.019V649.673Z" fill="#E6E6E6"/>
<path opacity="0.12" d="M281.863 649.673H260.792V653.639H281.863V649.673Z" fill="#E6E6E6"/>
<path opacity="0.6" d="M310.535 649.673H289.463V653.639H310.535V649.673Z" fill="#E6E6E6"/>
<path opacity="0.02" d="M253.019 658.812H231.947V662.779H253.019V658.812Z" fill="#E6E6E6"/>
<path opacity="0.28" d="M281.863 658.812H260.792V662.779H281.863V658.812Z" fill="#E6E6E6"/>
<path opacity="0.21" d="M310.535 658.812H289.463V662.779H310.535V658.812Z" fill="#E6E6E6"/>
<path opacity="0.57" d="M253.019 667.952H231.947V671.918H253.019V667.952Z" fill="#E6E6E6"/>
<path opacity="0.38" d="M281.863 667.952H260.792V671.918H281.863V667.952Z" fill="#E6E6E6"/>
<path opacity="0.25" d="M310.535 667.952H289.463V671.918H310.535V667.952Z" fill="#E6E6E6"/>
<path opacity="0.15" d="M253.019 677.092H231.947V681.058H253.019V677.092Z" fill="#E6E6E6"/>
<path opacity="0.47" d="M281.863 677.092H260.792V681.058H281.863V677.092Z" fill="#E6E6E6"/>
<path opacity="0.3" d="M310.535 677.092H289.463V681.058H310.535V677.092Z" fill="#E6E6E6"/>
<path opacity="0.4" d="M253.019 686.231H231.947V690.197H253.019V686.231Z" fill="#E6E6E6"/>
<path opacity="0.39" d="M281.863 686.231H260.792V690.197H281.863V686.231Z" fill="#E6E6E6"/>
<path opacity="0.24" d="M310.535 686.231H289.463V690.197H310.535V686.231Z" fill="#E6E6E6"/>
<path opacity="0.46" d="M253.019 695.371H231.947V699.337H253.019V695.371Z" fill="#E6E6E6"/>
<path opacity="0.22" d="M281.863 695.371H260.792V699.337H281.863V695.371Z" fill="#E6E6E6"/>
<path opacity="0.11" d="M310.535 695.371H289.463V699.337H310.535V695.371Z" fill="#E6E6E6"/>
<path opacity="0.11" d="M281.863 704.51H260.792V708.477H281.863V704.51Z" fill="#E6E6E6"/>
<path opacity="0.02" d="M310.535 704.51H289.463V708.477H310.535V704.51Z" fill="#E6E6E6"/>
<path opacity="0.27" d="M253.019 713.65H231.947V717.616H253.019V713.65Z" fill="#E6E6E6"/>
<path opacity="0.21" d="M281.863 713.65H260.792V717.616H281.863V713.65Z" fill="#E6E6E6"/>
<path opacity="0.49" d="M310.535 713.65H289.463V717.616H310.535V713.65Z" fill="#E6E6E6"/>
<path opacity="0.6" d="M253.019 722.79H231.947V726.756H253.019V722.79Z" fill="#E6E6E6"/>
<path opacity="0.31" d="M281.863 722.79H260.792V726.756H281.863V722.79Z" fill="#E6E6E6"/>
<path opacity="0.22" d="M310.535 722.79H289.463V726.756H310.535V722.79Z" fill="#E6E6E6"/>
<path opacity="0.54" d="M253.019 731.929H231.947V735.895H253.019V731.929Z" fill="#E6E6E6"/>
<path opacity="0.6" d="M281.863 731.929H260.792V735.895H281.863V731.929Z" fill="#E6E6E6"/>
<path opacity="0.08" d="M310.535 731.929H289.463V735.895H310.535V731.929Z" fill="#E6E6E6"/>
<path opacity="0.55" d="M281.863 741.069H260.792V745.035H281.863V741.069Z" fill="#E6E6E6"/>
<path d="M310.535 741.069H289.463V745.035H310.535V741.069Z" fill="#E6E6E6"/>
<path opacity="0.6" d="M254.401 567.417H253.019V745.035H254.401V567.417Z" fill="#E6E6E6"/>
<path opacity="0.6" d="M289.463 567.417H288.081V745.035H289.463V567.417Z" fill="#E6E6E6"/>
<path d="M358.378 557.415H314.853V778.661H358.378V557.415Z" fill="#4D4D4D"/>
<path opacity="0.69" d="M351.988 567.417H319.171V571.383H351.988V567.417Z" fill="#E6E6E6"/>
<path opacity="0.79" d="M351.988 576.557H319.171V580.523H351.988V576.557Z" fill="#E6E6E6"/>
<path opacity="0.19" d="M351.988 585.696H319.171V589.662H351.988V585.696Z" fill="#E6E6E6"/>
<path opacity="0.88" d="M351.988 594.835H319.171V598.802H351.988V594.835Z" fill="#E6E6E6"/>
<path opacity="0.5" d="M351.988 603.975H319.171V607.941H351.988V603.975Z" fill="#E6E6E6"/>
<path opacity="0.25" d="M351.988 613.115H319.171V617.081H351.988V613.115Z" fill="#E6E6E6"/>
<path opacity="0.91" d="M351.988 622.254H319.171V626.221H351.988V622.254Z" fill="#E6E6E6"/>
<path opacity="0.02" d="M351.988 631.394H319.171V635.36H351.988V631.394Z" fill="#E6E6E6"/>
<path opacity="0.53" d="M351.988 640.533H319.171V644.5H351.988V640.533Z" fill="#E6E6E6"/>
<path opacity="0.65" d="M351.988 649.673H319.171V653.639H351.988V649.673Z" fill="#E6E6E6"/>
<path d="M351.988 658.812H319.171V662.779H351.988V658.812Z" fill="#E6E6E6"/>
<path opacity="0.8" d="M351.988 667.952H319.171V671.918H351.988V667.952Z" fill="#E6E6E6"/>
<path opacity="0.82" d="M351.988 677.092H319.171V681.058H351.988V677.092Z" fill="#E6E6E6"/>
<path opacity="0.75" d="M351.988 686.231H319.171V690.197H351.988V686.231Z" fill="#E6E6E6"/>
<path opacity="0.31" d="M351.988 695.371H319.171V699.337H351.988V695.371Z" fill="#E6E6E6"/>
<path opacity="0.22" d="M351.988 704.51H319.171V708.477H351.988V704.51Z" fill="#E6E6E6"/>
<path opacity="0.43" d="M351.988 713.65H319.171V717.616H351.988V713.65Z" fill="#E6E6E6"/>
<path opacity="0.68" d="M351.988 722.79H319.171V726.756H351.988V722.79Z" fill="#E6E6E6"/>
<path opacity="0.38" d="M351.988 731.929H319.171V735.895H351.988V731.929Z" fill="#E6E6E6"/>
<path opacity="0.84" d="M351.988 741.069H319.171V745.035H351.988V741.069Z" fill="#E6E6E6"/>
<path d="M243.001 545.689V557.415H299.481V545.689H243.001ZM255.61 553.621H249.737V549.655H255.61V553.621ZM264.764 553.621H259.064V549.655H264.764V553.621ZM274.091 553.621H268.391V549.655H274.091V553.621ZM283.418 553.621H277.545V549.655H283.418V553.621ZM292.745 553.621H286.872V549.655H292.745V553.621Z" fill="#333333"/>
<path d="M309.844 549.655H308.29V553.621H309.844V549.655Z" fill="#333333"/>
<path d="M299.481 545.689V557.415H326.08V545.689H299.481ZM309.844 553.621H304.144V549.655H309.844V553.621ZM322.107 553.621H316.408V549.655H322.107V553.621Z" fill="#4D4D4D"/>
<path d="M321.935 549.655H320.38V553.621H321.935V549.655Z" fill="#333333"/>
<path d="M326.425 793.663H208.976L326.425 707.096V793.663Z" fill="#333333"/>
<path d="M151.287 510.51H141.787V546.551H151.287V510.51Z" fill="#4D4D4D"/>
<path d="M141.96 510.51H132.288V546.551H141.96V510.51Z" fill="#333333"/>
<path d="M161.132 510.51H151.46V546.551H161.132V510.51Z" fill="#666666"/>
<path d="M189.113 571.21H162.168V776.764H189.113V571.21Z" fill="#666666"/>
<path d="M130.561 571.21H107.071V776.764H130.561V571.21Z" fill="#333333"/>
<path d="M162.168 571.21H130.388V776.764H162.168V571.21Z" fill="#4D4D4D"/>
<path opacity="0.6" d="M113.807 577.246H110.352V774.005H113.807V577.246Z" fill="#E6E6E6"/>
<path opacity="0.6" d="M120.543 577.246H117.088V774.005H120.543V577.246Z" fill="#E6E6E6"/>
<path opacity="0.6" d="M127.279 577.246H123.825V774.005H127.279V577.246Z" fill="#E6E6E6"/>
<path d="M167.523 577.246H164.068V774.005H167.523V577.246Z" fill="#E6E6E6"/>
<path d="M174.259 577.246H170.804V774.005H174.259V577.246Z" fill="#E6E6E6"/>
<path d="M187.385 577.246H183.931V774.005H187.385V577.246Z" fill="#E6E6E6"/>
<path d="M180.995 577.246H177.54V774.005H180.995V577.246Z" fill="#E6E6E6"/>
<path opacity="0.8" d="M134.36 774.005H158.196V577.246H134.36V774.005ZM138.16 580.695H154.396V770.556H138.16V580.695Z" fill="#E6E6E6"/>
<path opacity="0.8" d="M141.269 767.28H151.46V583.799H141.269V767.28ZM144.724 588.11H145.933H146.624H148.005V762.968H146.624H145.933H144.724V588.11Z" fill="#E6E6E6"/>
<path opacity="0.8" d="M146.624 588.11H145.933V762.969H146.624V588.11Z" fill="#E6E6E6"/>
<path d="M158.541 535.169H134.706V571.21H158.541V535.169Z" fill="#4D4D4D"/>
<path d="M158.541 535.169H134.706V571.21H158.541V535.169Z" fill="#4D4D4D"/>
<path d="M182.377 535.169H158.541V571.21H182.377V535.169Z" fill="#666666"/>
<path d="M134.706 535.169H110.87V571.21H134.706V535.169Z" fill="#333333"/>
<path d="M160.959 510.51H132.288L141.787 517.063H151.46L160.959 510.51Z" fill="#808080"/>
<path d="M673.42 497.232H659.603V537.756H673.42V497.232Z" fill="#4D4D4D"/>
<path d="M659.43 497.232H645.612V537.756H659.43V497.232Z" fill="#333333"/>
<path d="M687.238 497.232H673.42V537.756H687.238V497.232Z" fill="#666666"/>
<path d="M728 565.692H688.965V797.285H728V565.692Z" fill="#666666"/>
<path d="M643.021 565.692H609.168V797.285H643.021V565.692Z" fill="#333333"/>
<path d="M688.965 565.692H643.022V797.285H688.965V565.692Z" fill="#4D4D4D"/>
<path opacity="0.4" d="M618.841 572.59H613.832V794.181H618.841V572.59Z" fill="#E6E6E6"/>
<path opacity="0.4" d="M628.686 572.59H623.677V794.181H628.686V572.59Z" fill="#E6E6E6"/>
<path opacity="0.4" d="M638.531 572.59H633.522V794.181H638.531V572.59Z" fill="#E6E6E6"/>
<path d="M696.738 572.59H691.729V794.181H696.738V572.59Z" fill="#E6E6E6"/>
<path d="M706.583 572.59H701.574V794.181H706.583V572.59Z" fill="#E6E6E6"/>
<path d="M725.409 572.59H720.4V794.181H725.409V572.59Z" fill="#E6E6E6"/>
<path d="M716.255 572.59H711.246V794.181H716.255V572.59Z" fill="#E6E6E6"/>
<path d="M648.894 794.181H683.438V572.59H648.894V794.181ZM654.248 576.384H677.738V790.387H654.248V576.384Z" fill="#E6E6E6"/>
<path d="M658.566 786.766H673.42V580.005H658.566V786.766ZM663.748 584.834H665.648H666.512H668.411V781.938H666.512H665.648H663.748V584.834Z" fill="#E6E6E6"/>
<path d="M666.512 584.833H665.648V781.937H666.512V584.833Z" fill="#E6E6E6"/>
<path d="M683.784 525.168H649.24V565.692H683.784V525.168Z" fill="#4D4D4D"/>
<path d="M683.784 525.168H649.24V565.692H683.784V525.168Z" fill="#4D4D4D"/>
<path d="M718.328 525.168H683.784V565.692H718.328V525.168Z" fill="#666666"/>
<path d="M649.412 525.168H614.868V565.692H649.412V525.168Z" fill="#333333"/>
<path d="M687.411 497.232H645.612L659.603 504.647H673.42L687.411 497.232Z" fill="#808080"/>
<path d="M573.761 597.766H479.283V629.151H573.761V597.766Z" fill="#E6E6E6"/>
<path d="M516.418 597.766H479.283V629.151H516.418V597.766Z" fill="#B3B3B3"/>
<path d="M516.418 629.324H443.011V781.765H516.418V629.324Z" fill="#333333"/>
<path d="M631.104 629.324H516.418V781.765H631.104V629.324Z" fill="#4D4D4D"/>
<path d="M507.436 613.803H450.957V629.323H507.436V613.803Z" fill="#333333"/>
<path d="M614.005 613.803H533.344V629.323H614.005V613.803Z" fill="#4D4D4D"/>
<path d="M548.716 585.867H516.418V597.766H548.716V585.867Z" fill="#E6E6E6"/>
<path d="M532.481 573.796H516.418V585.695H532.481V573.796Z" fill="#4D4D4D"/>
<path d="M516.245 573.796H500.182V585.695H516.245V573.796Z" fill="#333333"/>
<path d="M516.418 585.867H491.719V597.766H516.418V585.867Z" fill="#B3B3B3"/>
<path d="M515.381 573.796L516.418 546.205L517.281 573.796H515.381Z" fill="#333333"/>
<path opacity="0.12" d="M466.156 635.531H460.111V641.567H466.156V635.531Z" fill="white"/>
<path opacity="0.25" d="M474.447 635.531H468.401V641.567H474.447V635.531Z" fill="white"/>
<path opacity="0.36" d="M482.737 635.531H476.692V641.567H482.737V635.531Z" fill="white"/>
<path opacity="0.12" d="M491.028 635.531H484.982V641.567H491.028V635.531Z" fill="white"/>
<path opacity="0.14" d="M499.318 635.531H493.273V641.567H499.318V635.531Z" fill="white"/>
<path opacity="0.28" d="M466.156 643.464H460.111V649.499H466.156V643.464Z" fill="white"/>
<path opacity="0.4" d="M474.447 643.464H468.401V649.499H474.447V643.464Z" fill="white"/>
<path opacity="0.16" d="M482.737 643.464H476.692V649.499H482.737V643.464Z" fill="white"/>
<path opacity="0.17" d="M499.318 643.464H493.273V649.499H499.318V643.464Z" fill="white"/>
<path opacity="0.27" d="M466.156 651.396H460.111V657.432H466.156V651.396Z" fill="white"/>
<path opacity="0.45" d="M474.447 651.396H468.401V657.432H474.447V651.396Z" fill="white"/>
<path opacity="0.45" d="M482.737 651.396H476.692V657.432H482.737V651.396Z" fill="white"/>
<path opacity="0.48" d="M491.028 651.396H484.982V657.432H491.028V651.396Z" fill="white"/>
<path opacity="0.25" d="M499.318 651.396H493.273V657.432H499.318V651.396Z" fill="white"/>
<path opacity="0.28" d="M466.156 659.329H460.111V665.364H466.156V659.329Z" fill="white"/>
<path opacity="0.13" d="M474.447 659.329H468.401V665.364H474.447V659.329Z" fill="white"/>
<path opacity="0.07" d="M482.737 659.329H476.692V665.364H482.737V659.329Z" fill="white"/>
<path opacity="0.39" d="M491.028 659.329H484.982V665.364H491.028V659.329Z" fill="white"/>
<path opacity="0.47" d="M499.318 659.329H493.273V665.364H499.318V659.329Z" fill="white"/>
<path opacity="0.28" d="M466.156 667.261H460.111V673.296H466.156V667.261Z" fill="white"/>
<path opacity="0.2" d="M474.447 667.261H468.401V673.296H474.447V667.261Z" fill="white"/>
<path opacity="0.04" d="M482.737 667.261H476.692V673.296H482.737V667.261Z" fill="white"/>
<path opacity="0.43" d="M491.028 667.261H484.982V673.296H491.028V667.261Z" fill="white"/>
<path opacity="0.48" d="M499.318 667.261H493.273V673.296H499.318V667.261Z" fill="white"/>
<path opacity="0.28" d="M466.156 675.193H460.111V681.229H466.156V675.193Z" fill="white"/>
<path opacity="0.19" d="M474.447 675.193H468.401V681.229H474.447V675.193Z" fill="white"/>
<path opacity="0.01" d="M482.737 675.193H476.692V681.229H482.737V675.193Z" fill="white"/>
<path opacity="0.27" d="M491.028 675.193H484.982V681.229H491.028V675.193Z" fill="white"/>
<path opacity="0.24" d="M499.318 675.193H493.273V681.229H499.318V675.193Z" fill="white"/>
<path opacity="0.07" d="M466.156 683.298H460.111V689.334H466.156V683.298Z" fill="white"/>
<path opacity="0.25" d="M474.447 683.298H468.401V689.334H474.447V683.298Z" fill="white"/>
<path opacity="0.26" d="M482.737 683.298H476.692V689.334H482.737V683.298Z" fill="white"/>
<path opacity="0.39" d="M491.028 683.298H484.982V689.334H491.028V683.298Z" fill="white"/>
<path opacity="0.22" d="M499.318 683.298H493.273V689.334H499.318V683.298Z" fill="white"/>
<path opacity="0.15" d="M466.156 691.231H460.111V697.266H466.156V691.231Z" fill="white"/>
<path opacity="0.23" d="M474.447 691.231H468.401V697.266H474.447V691.231Z" fill="white"/>
<path opacity="0.05" d="M482.737 691.231H476.692V697.266H482.737V691.231Z" fill="white"/>
<path opacity="0.2" d="M491.028 691.231H484.982V697.266H491.028V691.231Z" fill="white"/>
<path opacity="0.31" d="M499.318 691.231H493.273V697.266H499.318V691.231Z" fill="white"/>
<path opacity="0.15" d="M466.156 699.163H460.111V705.199H466.156V699.163Z" fill="white"/>
<path opacity="0.33" d="M474.447 699.163H468.401V705.199H474.447V699.163Z" fill="white"/>
<path opacity="0.46" d="M482.737 699.163H476.692V705.199H482.737V699.163Z" fill="white"/>
<path opacity="0.25" d="M491.028 699.163H484.982V705.199H491.028V699.163Z" fill="white"/>
<path opacity="0.43" d="M499.318 699.163H493.273V705.199H499.318V699.163Z" fill="white"/>
<path opacity="0.4" d="M466.156 707.096H460.111V713.131H466.156V707.096Z" fill="white"/>
<path opacity="0.39" d="M474.447 707.096H468.401V713.131H474.447V707.096Z" fill="white"/>
<path opacity="0.01" d="M482.737 707.096H476.692V713.131H482.737V707.096Z" fill="white"/>
<path opacity="0.12" d="M491.028 707.096H484.982V713.131H491.028V707.096Z" fill="white"/>
<path opacity="0.07" d="M499.318 707.096H493.273V713.131H499.318V707.096Z" fill="white"/>
<path opacity="0.07" d="M466.156 715.028H460.111V721.064H466.156V715.028Z" fill="white"/>
<path opacity="0.02" d="M474.447 715.028H468.401V721.064H474.447V715.028Z" fill="white"/>
<path opacity="0.12" d="M482.737 715.028H476.692V721.064H482.737V715.028Z" fill="white"/>
<path opacity="0.23" d="M491.028 715.028H484.982V721.064H491.028V715.028Z" fill="white"/>
<path opacity="0.26" d="M499.318 715.028H493.273V721.064H499.318V715.028Z" fill="white"/>
<path opacity="0.27" d="M466.156 722.961H460.111V728.996H466.156V722.961Z" fill="white"/>
<path opacity="0.38" d="M474.447 722.961H468.401V728.996H474.447V722.961Z" fill="white"/>
<path opacity="0.05" d="M482.737 722.961H476.692V728.996H482.737V722.961Z" fill="white"/>
<path opacity="0.45" d="M491.028 722.961H484.982V728.996H491.028V722.961Z" fill="white"/>
<path opacity="0.15" d="M499.318 722.961H493.273V728.996H499.318V722.961Z" fill="white"/>
<path opacity="0.06" d="M466.156 730.893H460.111V736.929H466.156V730.893Z" fill="white"/>
<path opacity="0.47" d="M474.447 730.893H468.401V736.929H474.447V730.893Z" fill="white"/>
<path opacity="0.15" d="M482.737 730.893H476.692V736.929H482.737V730.893Z" fill="white"/>
<path opacity="0.44" d="M491.028 730.893H484.982V736.929H491.028V730.893Z" fill="white"/>
<path opacity="0.14" d="M499.318 730.893H493.273V736.929H499.318V730.893Z" fill="white"/>
<path opacity="0.15" d="M466.156 738.826H460.111V744.861H466.156V738.826Z" fill="white"/>
<path opacity="0.43" d="M474.447 738.826H468.401V744.861H474.447V738.826Z" fill="white"/>
<path opacity="0.07" d="M482.737 738.826H476.692V744.861H482.737V738.826Z" fill="white"/>
<path opacity="0.47" d="M491.028 738.826H484.982V744.861H491.028V738.826Z" fill="white"/>
<path opacity="0.11" d="M499.318 738.826H493.273V744.861H499.318V738.826Z" fill="white"/>
<path opacity="0.07" d="M466.156 746.758H460.111V752.794H466.156V746.758Z" fill="white"/>
<path opacity="0.34" d="M474.447 746.758H468.401V752.794H474.447V746.758Z" fill="white"/>
<path opacity="0.5" d="M482.737 746.758H476.692V752.794H482.737V746.758Z" fill="white"/>
<path opacity="0.36" d="M491.028 746.758H484.982V752.794H491.028V746.758Z" fill="white"/>
<path opacity="0.34" d="M499.318 746.758H493.273V752.794H499.318V746.758Z" fill="white"/>
<path opacity="0.47" d="M466.156 754.69H460.111V760.726H466.156V754.69Z" fill="white"/>
<path opacity="0.41" d="M474.447 754.69H468.401V760.726H474.447V754.69Z" fill="white"/>
<path opacity="0.3" d="M482.737 754.69H476.692V760.726H482.737V754.69Z" fill="white"/>
<path opacity="0.33" d="M491.028 754.69H484.982V760.726H491.028V754.69Z" fill="white"/>
<path opacity="0.12" d="M499.318 754.69H493.273V760.726H499.318V754.69Z" fill="white"/>
<path opacity="0.24" d="M466.156 762.623H460.111V768.658H466.156V762.623Z" fill="white"/>
<path opacity="0.29" d="M474.447 762.623H468.401V768.658H474.447V762.623Z" fill="white"/>
<path opacity="0.27" d="M491.028 762.623H484.982V768.658H491.028V762.623Z" fill="white"/>
<path opacity="0.04" d="M499.318 762.623H493.273V768.658H499.318V762.623Z" fill="white"/>
<path opacity="0.11" d="M466.156 770.555H460.111V776.591H466.156V770.555Z" fill="white"/>
<path opacity="0.05" d="M474.447 770.555H468.401V776.591H474.447V770.555Z" fill="white"/>
<path opacity="0.04" d="M482.737 770.555H476.692V776.591H482.737V770.555Z" fill="white"/>
<path opacity="0.02" d="M491.028 770.555H484.982V776.591H491.028V770.555Z" fill="white"/>
<path opacity="0.3" d="M536.453 635.531H530.408V641.567H536.453V635.531Z" fill="white"/>
<path opacity="0.72" d="M544.398 635.531H538.353V641.567H544.398V635.531Z" fill="white"/>
<path opacity="0.7" d="M552.516 635.531H546.471V641.567H552.516V635.531Z" fill="white"/>
<path opacity="0.52" d="M560.634 635.531H554.589V641.567H560.634V635.531Z" fill="white"/>
<path opacity="0.2" d="M568.752 635.531H562.706V641.567H568.752V635.531Z" fill="white"/>
<path opacity="0.32" d="M576.697 635.531H570.652V641.567H576.697V635.531Z" fill="white"/>
<path opacity="0.13" d="M584.815 635.531H578.77V641.567H584.815V635.531Z" fill="white"/>
<path opacity="0.38" d="M592.933 635.531H586.887V641.567H592.933V635.531Z" fill="white"/>
<path opacity="0.61" d="M600.878 635.531H594.833V641.567H600.878V635.531Z" fill="white"/>
<path d="M608.996 635.531H602.95V641.567H608.996V635.531Z" fill="white"/>
<path opacity="0.91" d="M617.113 635.531H611.068V641.567H617.113V635.531Z" fill="white"/>
<path opacity="0.66" d="M536.453 643.464H530.408V649.499H536.453V643.464Z" fill="white"/>
<path opacity="0.31" d="M544.398 643.464H538.353V649.499H544.398V643.464Z" fill="white"/>
<path opacity="0.95" d="M552.516 643.464H546.471V649.499H552.516V643.464Z" fill="white"/>
<path opacity="0.7" d="M560.634 643.464H554.589V649.499H560.634V643.464Z" fill="white"/>
<path opacity="0.12" d="M568.752 643.464H562.706V649.499H568.752V643.464Z" fill="white"/>
<path opacity="0.24" d="M576.697 643.464H570.652V649.499H576.697V643.464Z" fill="white"/>
<path opacity="0.66" d="M584.815 643.464H578.77V649.499H584.815V643.464Z" fill="white"/>
<path opacity="0.71" d="M592.933 643.464H586.887V649.499H592.933V643.464Z" fill="white"/>
<path opacity="0.42" d="M600.878 643.464H594.833V649.499H600.878V643.464Z" fill="white"/>
<path opacity="0.09" d="M608.996 643.464H602.95V649.499H608.996V643.464Z" fill="white"/>
<path opacity="0.32" d="M617.113 643.464H611.068V649.499H617.113V643.464Z" fill="white"/>
<path opacity="0.65" d="M536.453 651.396H530.408V657.432H536.453V651.396Z" fill="white"/>
<path d="M544.398 651.396H538.353V657.432H544.398V651.396Z" fill="white"/>
<path d="M552.516 651.396H546.471V657.432H552.516V651.396Z" fill="white"/>
<path opacity="0.71" d="M560.634 651.396H554.589V657.432H560.634V651.396Z" fill="white"/>
<path opacity="0.2" d="M568.752 651.396H562.706V657.432H568.752V651.396Z" fill="white"/>
<path opacity="0.19" d="M576.697 651.396H570.652V657.432H576.697V651.396Z" fill="white"/>
<path opacity="0.62" d="M584.815 651.396H578.77V657.432H584.815V651.396Z" fill="white"/>
<path opacity="0.93" d="M592.933 651.396H586.887V657.432H592.933V651.396Z" fill="white"/>
<path opacity="0.56" d="M600.878 651.396H594.833V657.432H600.878V651.396Z" fill="white"/>
<path opacity="0.57" d="M608.996 651.396H602.95V657.432H608.996V651.396Z" fill="white"/>
<path opacity="0.52" d="M617.113 651.396H611.068V657.432H617.113V651.396Z" fill="white"/>
<path opacity="0.74" d="M536.453 659.329H530.408V665.364H536.453V659.329Z" fill="white"/>
<path opacity="0.56" d="M544.398 659.329H538.353V665.364H544.398V659.329Z" fill="white"/>
<path opacity="0.78" d="M552.516 659.329H546.471V665.364H552.516V659.329Z" fill="white"/>
<path opacity="0.41" d="M560.634 659.329H554.589V665.364H560.634V659.329Z" fill="white"/>
<path opacity="0.14" d="M568.752 659.329H562.706V665.364H568.752V659.329Z" fill="white"/>
<path opacity="0.28" d="M576.697 659.329H570.652V665.364H576.697V659.329Z" fill="white"/>
<path opacity="0.36" d="M584.815 659.329H578.77V665.364H584.815V659.329Z" fill="white"/>
<path opacity="0.14" d="M592.933 659.329H586.887V665.364H592.933V659.329Z" fill="white"/>
<path opacity="0.5" d="M600.878 659.329H594.833V665.364H600.878V659.329Z" fill="white"/>
<path opacity="0.98" d="M608.996 659.329H602.95V665.364H608.996V659.329Z" fill="white"/>
<path opacity="0.59" d="M617.113 659.329H611.068V665.364H617.113V659.329Z" fill="white"/>
<path opacity="0.07" d="M536.453 667.261H530.408V673.296H536.453V667.261Z" fill="white"/>
<path opacity="0.1" d="M544.398 667.261H538.353V673.296H544.398V667.261Z" fill="white"/>
<path opacity="0.88" d="M552.516 667.261H546.471V673.296H552.516V667.261Z" fill="white"/>
<path opacity="0.68" d="M560.634 667.261H554.589V673.296H560.634V667.261Z" fill="white"/>
<path opacity="0.81" d="M568.752 667.261H562.706V673.296H568.752V667.261Z" fill="white"/>
<path opacity="0.62" d="M576.697 667.261H570.652V673.296H576.697V667.261Z" fill="white"/>
<path opacity="0.97" d="M584.815 667.261H578.77V673.296H584.815V667.261Z" fill="white"/>
<path opacity="0.81" d="M592.933 667.261H586.887V673.296H592.933V667.261Z" fill="white"/>
<path opacity="0.79" d="M600.878 667.261H594.833V673.296H600.878V667.261Z" fill="white"/>
<path opacity="0.03" d="M608.996 667.261H602.95V673.296H608.996V667.261Z" fill="white"/>
<path opacity="0.95" d="M617.113 667.261H611.068V673.296H617.113V667.261Z" fill="white"/>
<path opacity="0.62" d="M536.453 675.193H530.408V681.229H536.453V675.193Z" fill="white"/>
<path opacity="0.22" d="M544.398 675.193H538.353V681.229H544.398V675.193Z" fill="white"/>
<path opacity="0.42" d="M552.516 675.193H546.471V681.229H552.516V675.193Z" fill="white"/>
<path opacity="0.56" d="M560.634 675.193H554.589V681.229H560.634V675.193Z" fill="white"/>
<path opacity="0.03" d="M568.752 675.193H562.706V681.229H568.752V675.193Z" fill="white"/>
<path opacity="0.64" d="M576.697 675.193H570.652V681.229H576.697V675.193Z" fill="white"/>
<path opacity="0.82" d="M584.815 675.193H578.77V681.229H584.815V675.193Z" fill="white"/>
<path opacity="0.52" d="M592.933 675.193H586.887V681.229H592.933V675.193Z" fill="white"/>
<path opacity="0.46" d="M600.878 675.193H594.833V681.229H600.878V675.193Z" fill="white"/>
<path opacity="0.27" d="M608.996 675.193H602.95V681.229H608.996V675.193Z" fill="white"/>
<path opacity="0.46" d="M617.113 675.193H611.068V681.229H617.113V675.193Z" fill="white"/>
<path opacity="0.66" d="M536.453 683.298H530.408V689.334H536.453V683.298Z" fill="white"/>
<path opacity="0.7" d="M544.398 683.298H538.353V689.334H544.398V683.298Z" fill="white"/>
<path opacity="0.94" d="M552.516 683.298H546.471V689.334H552.516V683.298Z" fill="white"/>
<path opacity="0.5" d="M560.634 683.298H554.589V689.334H560.634V683.298Z" fill="white"/>
<path opacity="0.12" d="M568.752 683.298H562.706V689.334H568.752V683.298Z" fill="white"/>
<path opacity="0.36" d="M576.697 683.298H570.652V689.334H576.697V683.298Z" fill="white"/>
<path opacity="0.51" d="M584.815 683.298H578.77V689.334H584.815V683.298Z" fill="white"/>
<path opacity="0.37" d="M592.933 683.298H586.887V689.334H592.933V683.298Z" fill="white"/>
<path opacity="0.66" d="M600.878 683.298H594.833V689.334H600.878V683.298Z" fill="white"/>
<path opacity="0.42" d="M608.996 683.298H602.95V689.334H608.996V683.298Z" fill="white"/>
<path opacity="0.5" d="M617.113 683.298H611.068V689.334H617.113V683.298Z" fill="white"/>
<path opacity="0.52" d="M536.453 691.231H530.408V697.266H536.453V691.231Z" fill="white"/>
<path opacity="0.61" d="M544.398 691.231H538.353V697.266H544.398V691.231Z" fill="white"/>
<path opacity="0.84" d="M552.516 691.231H546.471V697.266H552.516V691.231Z" fill="white"/>
<path opacity="0.89" d="M560.634 691.231H554.589V697.266H560.634V691.231Z" fill="white"/>
<path opacity="0.33" d="M568.752 691.231H562.706V697.266H568.752V691.231Z" fill="white"/>
<path opacity="0.25" d="M576.697 691.231H570.652V697.266H576.697V691.231Z" fill="white"/>
<path opacity="0.95" d="M584.815 691.231H578.77V697.266H584.815V691.231Z" fill="white"/>
<path opacity="0.09" d="M592.933 691.231H586.887V697.266H592.933V691.231Z" fill="white"/>
<path opacity="0.44" d="M600.878 691.231H594.833V697.266H600.878V691.231Z" fill="white"/>
<path opacity="0.51" d="M608.996 691.231H602.95V697.266H608.996V691.231Z" fill="white"/>
<path opacity="0.97" d="M617.113 691.231H611.068V697.266H617.113V691.231Z" fill="white"/>
<path opacity="0.26" d="M536.453 699.163H530.408V705.199H536.453V699.163Z" fill="white"/>
<path opacity="0.92" d="M544.398 699.163H538.353V705.199H544.398V699.163Z" fill="white"/>
<path opacity="0.33" d="M552.516 699.163H546.471V705.199H552.516V699.163Z" fill="white"/>
<path opacity="0.23" d="M560.634 699.163H554.589V705.199H560.634V699.163Z" fill="white"/>
<path opacity="0.42" d="M568.752 699.163H562.706V705.199H568.752V699.163Z" fill="white"/>
<path opacity="0.57" d="M576.697 699.163H570.652V705.199H576.697V699.163Z" fill="white"/>
<path opacity="0.73" d="M584.815 699.163H578.77V705.199H584.815V699.163Z" fill="white"/>
<path opacity="0.87" d="M592.933 699.163H586.887V705.199H592.933V699.163Z" fill="white"/>
<path opacity="0.22" d="M600.878 699.163H594.833V705.199H600.878V699.163Z" fill="white"/>
<path opacity="0.89" d="M608.996 699.163H602.95V705.199H608.996V699.163Z" fill="white"/>
<path opacity="0.73" d="M617.113 699.163H611.068V705.199H617.113V699.163Z" fill="white"/>
<path opacity="0.35" d="M536.453 707.096H530.408V713.131H536.453V707.096Z" fill="white"/>
<path opacity="0.81" d="M544.398 707.096H538.353V713.131H544.398V707.096Z" fill="white"/>
<path opacity="0.56" d="M552.516 707.096H546.471V713.131H552.516V707.096Z" fill="white"/>
<path opacity="0.81" d="M560.634 707.096H554.589V713.131H560.634V707.096Z" fill="white"/>
<path opacity="0.87" d="M568.752 707.096H562.706V713.131H568.752V707.096Z" fill="white"/>
<path opacity="0.39" d="M576.697 707.096H570.652V713.131H576.697V707.096Z" fill="white"/>
<path opacity="0.31" d="M584.815 707.096H578.77V713.131H584.815V707.096Z" fill="white"/>
<path opacity="0.98" d="M592.933 707.096H586.887V713.131H592.933V707.096Z" fill="white"/>
<path opacity="0.17" d="M600.878 707.096H594.833V713.131H600.878V707.096Z" fill="white"/>
<path opacity="0.06" d="M608.996 707.096H602.95V713.131H608.996V707.096Z" fill="white"/>
<path opacity="0.57" d="M617.113 707.096H611.068V713.131H617.113V707.096Z" fill="white"/>
<path opacity="0.67" d="M536.453 715.028H530.408V721.064H536.453V715.028Z" fill="white"/>
<path opacity="0.83" d="M544.398 715.028H538.353V721.064H544.398V715.028Z" fill="white"/>
<path opacity="0.99" d="M552.516 715.028H546.471V721.064H552.516V715.028Z" fill="white"/>
<path opacity="0.62" d="M560.634 715.028H554.589V721.064H560.634V715.028Z" fill="white"/>
<path opacity="0.87" d="M568.752 715.028H562.706V721.064H568.752V715.028Z" fill="white"/>
<path opacity="0.14" d="M576.697 715.028H570.652V721.064H576.697V715.028Z" fill="white"/>
<path opacity="0.12" d="M584.815 715.028H578.77V721.064H584.815V715.028Z" fill="white"/>
<path opacity="0.11" d="M592.933 715.028H586.887V721.064H592.933V715.028Z" fill="white"/>
<path opacity="0.39" d="M600.878 715.028H594.833V721.064H600.878V715.028Z" fill="white"/>
<path opacity="0.58" d="M608.996 715.028H602.95V721.064H608.996V715.028Z" fill="white"/>
<path opacity="0.54" d="M617.113 715.028H611.068V721.064H617.113V715.028Z" fill="white"/>
<path opacity="0.99" d="M536.453 722.961H530.408V728.996H536.453V722.961Z" fill="white"/>
<path opacity="0.28" d="M544.398 722.961H538.353V728.996H544.398V722.961Z" fill="white"/>
<path opacity="0.78" d="M552.516 722.961H546.471V728.996H552.516V722.961Z" fill="white"/>
<path opacity="0.65" d="M560.634 722.961H554.589V728.996H560.634V722.961Z" fill="white"/>
<path opacity="0.32" d="M568.752 722.961H562.706V728.996H568.752V722.961Z" fill="white"/>
<path opacity="0.55" d="M576.697 722.961H570.652V728.996H576.697V722.961Z" fill="white"/>
<path opacity="0.4" d="M584.815 722.961H578.77V728.996H584.815V722.961Z" fill="white"/>
<path opacity="0.22" d="M592.933 722.961H586.887V728.996H592.933V722.961Z" fill="white"/>
<path opacity="0.87" d="M600.878 722.961H594.833V728.996H600.878V722.961Z" fill="white"/>
<path opacity="0.02" d="M608.996 722.961H602.95V728.996H608.996V722.961Z" fill="white"/>
<path opacity="0.39" d="M617.113 722.961H611.068V728.996H617.113V722.961Z" fill="white"/>
<path opacity="0.89" d="M536.453 730.893H530.408V736.929H536.453V730.893Z" fill="white"/>
<path opacity="0.97" d="M544.398 730.893H538.353V736.929H544.398V730.893Z" fill="white"/>
<path opacity="0.79" d="M552.516 730.893H546.471V736.929H552.516V730.893Z" fill="white"/>
<path opacity="0.41" d="M560.634 730.893H554.589V736.929H560.634V730.893Z" fill="white"/>
<path opacity="0.13" d="M568.752 730.893H562.706V736.929H568.752V730.893Z" fill="white"/>
<path opacity="0.9" d="M576.697 730.893H570.652V736.929H576.697V730.893Z" fill="white"/>
<path opacity="0.98" d="M584.815 730.893H578.77V736.929H584.815V730.893Z" fill="white"/>
<path opacity="0.67" d="M592.933 730.893H586.887V736.929H592.933V730.893Z" fill="white"/>
<path opacity="0.65" d="M600.878 730.893H594.833V736.929H600.878V730.893Z" fill="white"/>
<path opacity="0.89" d="M608.996 730.893H602.95V736.929H608.996V730.893Z" fill="white"/>
<path opacity="0.98" d="M617.113 730.893H611.068V736.929H617.113V730.893Z" fill="white"/>
<path opacity="0.29" d="M536.453 738.826H530.408V744.861H536.453V738.826Z" fill="white"/>
<path opacity="0.74" d="M544.398 738.826H538.353V744.861H544.398V738.826Z" fill="white"/>
<path opacity="0.64" d="M552.516 738.826H546.471V744.861H552.516V738.826Z" fill="white"/>
<path opacity="0.65" d="M560.634 738.826H554.589V744.861H560.634V738.826Z" fill="white"/>
<path opacity="0.07" d="M568.752 738.826H562.706V744.861H568.752V738.826Z" fill="white"/>
<path opacity="0.16" d="M576.697 738.826H570.652V744.861H576.697V738.826Z" fill="white"/>
<path opacity="0.84" d="M584.815 738.826H578.77V744.861H584.815V738.826Z" fill="white"/>
<path opacity="0.88" d="M592.933 738.826H586.887V744.861H592.933V738.826Z" fill="white"/>
<path opacity="0.57" d="M600.878 738.826H594.833V744.861H600.878V738.826Z" fill="white"/>
<path opacity="0.31" d="M608.996 738.826H602.95V744.861H608.996V738.826Z" fill="white"/>
<path opacity="0.03" d="M617.113 738.826H611.068V744.861H617.113V738.826Z" fill="white"/>
<path opacity="0.3" d="M536.453 746.758H530.408V752.794H536.453V746.758Z" fill="white"/>
<path opacity="0.59" d="M544.398 746.758H538.353V752.794H544.398V746.758Z" fill="white"/>
<path opacity="0.93" d="M552.516 746.758H546.471V752.794H552.516V746.758Z" fill="white"/>
<path opacity="0.06" d="M560.634 746.758H554.589V752.794H560.634V746.758Z" fill="white"/>
<path opacity="0.74" d="M568.752 746.758H562.706V752.794H568.752V746.758Z" fill="white"/>
<path opacity="0.22" d="M576.697 746.758H570.652V752.794H576.697V746.758Z" fill="white"/>
<path opacity="0.51" d="M584.815 746.758H578.77V752.794H584.815V746.758Z" fill="white"/>
<path opacity="0.7" d="M592.933 746.758H586.887V752.794H592.933V746.758Z" fill="white"/>
<path opacity="0.47" d="M600.878 746.758H594.833V752.794H600.878V746.758Z" fill="white"/>
<path opacity="0.08" d="M608.996 746.758H602.95V752.794H608.996V746.758Z" fill="white"/>
<path opacity="0.93" d="M617.113 746.758H611.068V752.794H617.113V746.758Z" fill="white"/>
<path opacity="0.81" d="M536.453 754.69H530.408V760.726H536.453V754.69Z" fill="white"/>
<path opacity="0.9" d="M544.398 754.69H538.353V760.726H544.398V754.69Z" fill="white"/>
<path opacity="0.55" d="M552.516 754.69H546.471V760.726H552.516V754.69Z" fill="white"/>
<path opacity="0.14" d="M560.634 754.69H554.589V760.726H560.634V754.69Z" fill="white"/>
<path opacity="0.66" d="M568.752 754.69H562.706V760.726H568.752V754.69Z" fill="white"/>
<path opacity="0.92" d="M576.697 754.69H570.652V760.726H576.697V754.69Z" fill="white"/>
<path opacity="0.4" d="M584.815 754.69H578.77V760.726H584.815V754.69Z" fill="white"/>
<path opacity="0.6" d="M592.933 754.69H586.887V760.726H592.933V754.69Z" fill="white"/>
<path opacity="0.99" d="M600.878 754.69H594.833V760.726H600.878V754.69Z" fill="white"/>
<path opacity="0.68" d="M608.996 754.69H602.95V760.726H608.996V754.69Z" fill="white"/>
<path opacity="0.01" d="M617.113 754.69H611.068V760.726H617.113V754.69Z" fill="white"/>
<path opacity="0.82" d="M536.453 762.623H530.408V768.658H536.453V762.623Z" fill="white"/>
<path opacity="0.92" d="M544.398 762.623H538.353V768.658H544.398V762.623Z" fill="white"/>
<path opacity="0.29" d="M552.516 762.623H546.471V768.658H552.516V762.623Z" fill="white"/>
<path opacity="0.73" d="M560.634 762.623H554.589V768.658H560.634V762.623Z" fill="white"/>
<path opacity="0.42" d="M568.752 762.623H562.706V768.658H568.752V762.623Z" fill="white"/>
<path opacity="0.06" d="M576.697 762.623H570.652V768.658H576.697V762.623Z" fill="white"/>
<path opacity="0.7" d="M584.815 762.623H578.77V768.658H584.815V762.623Z" fill="white"/>
<path opacity="0.97" d="M592.933 762.623H586.887V768.658H592.933V762.623Z" fill="white"/>
<path opacity="0.51" d="M600.878 762.623H594.833V768.658H600.878V762.623Z" fill="white"/>
<path opacity="0.69" d="M608.996 762.623H602.95V768.658H608.996V762.623Z" fill="white"/>
<path opacity="0.49" d="M617.113 762.623H611.068V768.658H617.113V762.623Z" fill="white"/>
<path opacity="0.45" d="M536.453 770.555H530.408V776.591H536.453V770.555Z" fill="white"/>
<path opacity="0.46" d="M544.398 770.555H538.353V776.591H544.398V770.555Z" fill="white"/>
<path opacity="0.04" d="M552.516 770.555H546.471V776.591H552.516V770.555Z" fill="white"/>
<path opacity="0.56" d="M560.634 770.555H554.589V776.591H560.634V770.555Z" fill="white"/>
<path opacity="0.4" d="M568.752 770.555H562.706V776.591H568.752V770.555Z" fill="white"/>
<path opacity="0.59" d="M576.697 770.555H570.652V776.591H576.697V770.555Z" fill="white"/>
<path opacity="0.82" d="M584.815 770.555H578.77V776.591H584.815V770.555Z" fill="white"/>
<path opacity="0.99" d="M592.933 770.555H586.887V776.591H592.933V770.555Z" fill="white"/>
<path opacity="0.1" d="M600.878 770.555H594.833V776.591H600.878V770.555Z" fill="white"/>
<path opacity="0.87" d="M608.996 770.555H602.95V776.591H608.996V770.555Z" fill="white"/>
<path d="M617.113 770.555H611.068V776.591H617.113V770.555Z" fill="white"/>
<path d="M434.375 596.732H377.378V775.039H434.375V596.732Z" fill="#333333"/>
<path d="M403.286 587.765H377.378V597.766H403.286V587.765Z" fill="#333333"/>
<path d="M392.404 581.902H377.378V587.765H392.404V581.902Z" fill="#333333"/>
<path opacity="0.25" d="M410.367 609.32H401.04V618.632H410.367V609.32Z" fill="white"/>
<path opacity="0.15" d="M410.367 632.255H401.04V641.567H410.367V632.255Z" fill="white"/>
<path opacity="0.19" d="M410.367 677.953H401.04V687.265H410.367V677.953Z" fill="white"/>
<path opacity="0.17" d="M410.367 700.716H401.04V710.028H410.367V700.716Z" fill="white"/>
<path opacity="0.22" d="M410.367 723.478H401.04V732.79H410.367V723.478Z" fill="white"/>
<path d="M410.367 746.414H401.04V755.726H410.367V746.414Z" fill="white"/>
<path d="M392.059 696.06H338.688V711.752H392.059V696.06Z" fill="#333333"/>
<path d="M418.658 696.06H392.059V711.752H418.658V696.06Z" fill="#4D4D4D"/>
<path d="M338.688 696.06L355.27 688.127L392.059 696.06H338.688Z" fill="#333333"/>
<path d="M355.27 688.127L392.059 696.06H418.658L355.27 688.127Z" fill="#4D4D4D"/>
<path d="M404.495 707.096H326.425V778.488H404.495V707.096Z" fill="#333333"/>
<path d="M430.403 707.096H404.495V778.488H430.403V707.096Z" fill="#4D4D4D"/>
<path opacity="0.81" d="M424.358 712.097H410.367V717.27H424.358V712.097Z" fill="white"/>
<path opacity="0.76" d="M424.358 721.581H410.367V726.755H424.358V721.581Z" fill="white"/>
<path opacity="0.32" d="M424.358 731.066H410.367V736.239H424.358V731.066Z" fill="white"/>
<path opacity="0.49" d="M424.358 740.723H410.367V745.896H424.358V740.723Z" fill="white"/>
<path opacity="0.99" d="M424.358 759.691H410.367V764.865H424.358V759.691Z" fill="white"/>
<path opacity="0.1" d="M352.852 712.097H338.861V717.27H352.852V712.097Z" fill="white"/>
<path opacity="0.04" d="M372.369 712.097H358.378V717.27H372.369V712.097Z" fill="white"/>
<path opacity="0.07" d="M392.059 712.097H378.069V717.27H392.059V712.097Z" fill="white"/>
<path opacity="0.06" d="M352.852 721.582H338.861V726.755H352.852V721.582Z" fill="white"/>
<path opacity="0.44" d="M372.369 721.582H358.378V726.755H372.369V721.582Z" fill="white"/>
<path opacity="0.24" d="M392.059 721.582H378.069V726.755H392.059V721.582Z" fill="white"/>
<path opacity="0.55" d="M352.852 731.066H338.861V736.239H352.852V731.066Z" fill="white"/>
<path opacity="0.02" d="M372.369 731.066H358.378V736.239H372.369V731.066Z" fill="white"/>
<path opacity="0.14" d="M392.059 731.066H378.069V736.239H392.059V731.066Z" fill="white"/>
<path opacity="0.43" d="M352.852 740.723H338.861V745.896H352.852V740.723Z" fill="white"/>
<path opacity="0.41" d="M372.369 740.723H358.378V745.896H372.369V740.723Z" fill="white"/>
<path opacity="0.46" d="M392.059 740.723H378.069V745.896H392.059V740.723Z" fill="white"/>
<path opacity="0.45" d="M352.852 750.207H338.861V755.38H352.852V750.207Z" fill="white"/>
<path opacity="0.33" d="M372.369 750.207H358.378V755.38H372.369V750.207Z" fill="white"/>
<path opacity="0.05" d="M392.059 750.207H378.069V755.38H392.059V750.207Z" fill="white"/>
<path opacity="0.27" d="M352.852 759.692H338.861V764.865H352.852V759.692Z" fill="white"/>
<path opacity="0.15" d="M372.369 759.692H358.378V764.865H372.369V759.692Z" fill="white"/>
<path opacity="0.7" d="M392.059 759.692H378.069V764.865H392.059V759.692Z" fill="white"/>
<path d="M24.6829 635.704H-23.6788V784.524H24.6829V635.704Z" fill="#333333"/>
<path d="M79.7806 635.704H24.8556V784.524H79.7806V635.704Z" fill="#4D4D4D"/>
<path d="M24.6829 648.293H-23.6788V650.88H24.6829V648.293Z" fill="#4D4D4D"/>
<path d="M79.7806 648.293H24.8556V650.88H79.7806V648.293Z" fill="#333333"/>
<path opacity="0.25" d="M6.71997 653.811H1.53833V658.984H6.71997V653.811Z" fill="white"/>
<path opacity="0.12" d="M20.8831 653.811H15.7014V658.984H20.8831V653.811Z" fill="white"/>
<path opacity="0.47" d="M6.71997 660.881H1.53833V666.054H6.71997V660.881Z" fill="white"/>
<path opacity="0.22" d="M13.8015 660.881H8.61993V666.054H13.8015V660.881Z" fill="white"/>
<path opacity="0.32" d="M20.8831 660.881H15.7014V666.054H20.8831V660.881Z" fill="white"/>
<path opacity="0.28" d="M6.71997 667.951H1.53833V673.125H6.71997V667.951Z" fill="white"/>
<path opacity="0.2" d="M20.8831 667.951H15.7014V673.125H20.8831V667.951Z" fill="white"/>
<path opacity="0.05" d="M6.71997 675.021H1.53833V680.195H6.71997V675.021Z" fill="white"/>
<path opacity="0.08" d="M13.8015 675.021H8.61993V680.195H13.8015V675.021Z" fill="white"/>
<path opacity="0.08" d="M6.71997 682.092H1.53833V687.265H6.71997V682.092Z" fill="white"/>
<path opacity="0.02" d="M13.8015 682.092H8.61993V687.265H13.8015V682.092Z" fill="white"/>
<path opacity="0.2" d="M6.71997 689.162H1.53833V694.335H6.71997V689.162Z" fill="white"/>
<path opacity="0.23" d="M13.8015 689.162H8.61993V694.335H13.8015V689.162Z" fill="white"/>
<path opacity="0.24" d="M13.8015 696.232H8.61993V701.406H13.8015V696.232Z" fill="white"/>
<path opacity="0.02" d="M6.71997 703.302H1.53833V708.476H6.71997V703.302Z" fill="white"/>
<path opacity="0.04" d="M13.8015 703.302H8.61993V708.476H13.8015V703.302Z" fill="white"/>
<path opacity="0.3" d="M20.8831 703.302H15.7014V708.476H20.8831V703.302Z" fill="white"/>
<path opacity="0.4" d="M20.8831 710.2H15.7014V715.374H20.8831V710.2Z" fill="white"/>
<path opacity="0.19" d="M13.8015 717.271H8.61993V722.444H13.8015V717.271Z" fill="white"/>
<path opacity="0.43" d="M20.8831 717.271H15.7014V722.444H20.8831V717.271Z" fill="white"/>
<path opacity="0.42" d="M6.71997 724.341H1.53833V729.514H6.71997V724.341Z" fill="white"/>
<path opacity="0.31" d="M20.8831 724.341H15.7014V729.514H20.8831V724.341Z" fill="white"/>
<path opacity="0.31" d="M6.71997 731.411H1.53833V736.584H6.71997V731.411Z" fill="white"/>
<path opacity="0.33" d="M20.8831 731.411H15.7014V736.584H20.8831V731.411Z" fill="white"/>
<path opacity="0.17" d="M6.71997 738.481H1.53833V743.655H6.71997V738.481Z" fill="white"/>
<path opacity="0.01" d="M13.8015 738.481H8.61993V743.655H13.8015V738.481Z" fill="white"/>
<path opacity="0.48" d="M20.8831 738.481H15.7014V743.655H20.8831V738.481Z" fill="white"/>
<path opacity="0.02" d="M6.71997 745.551H1.53833V750.725H6.71997V745.551Z" fill="white"/>
<path opacity="0.17" d="M13.8015 745.551H8.61993V750.725H13.8015V745.551Z" fill="white"/>
<path opacity="0.42" d="M20.8831 745.551H15.7014V750.725H20.8831V745.551Z" fill="white"/>
<path opacity="0.02" d="M6.71997 752.622H1.53833V757.795H6.71997V752.622Z" fill="white"/>
<path opacity="0.3" d="M20.8831 752.622H15.7014V757.795H20.8831V752.622Z" fill="white"/>
<path opacity="0.05" d="M6.71997 759.692H1.53833V764.865H6.71997V759.692Z" fill="white"/>
<path opacity="0.2" d="M20.8831 759.692H15.7014V764.865H20.8831V759.692Z" fill="white"/>
<path opacity="0.27" d="M6.71997 766.762H1.53833V771.936H6.71997V766.762Z" fill="white"/>
<path opacity="0.13" d="M13.8015 766.762H8.61993V771.936H13.8015V766.762Z" fill="white"/>
<path opacity="0.12" d="M6.71997 773.832H1.53833V779.006H6.71997V773.832Z" fill="white"/>
<path opacity="0.04" d="M13.8015 773.832H8.61993V779.006H13.8015V773.832Z" fill="white"/>
<path opacity="0.3" d="M20.8831 773.832H15.7014V779.006H20.8831V773.832Z" fill="white"/>
<path opacity="0.08" d="M13.8015 653.811H8.61993V658.984H13.8015V653.811Z" fill="white"/>
<path opacity="0.08" d="M13.8015 667.951H8.61993V673.125H13.8015V667.951Z" fill="white"/>
<path opacity="0.01" d="M20.8831 675.021H15.7014V680.195H20.8831V675.021Z" fill="white"/>
<path opacity="0.12" d="M20.8831 682.092H15.7014V687.265H20.8831V682.092Z" fill="white"/>
<path opacity="0.13" d="M6.71997 696.232H1.53833V701.406H6.71997V696.232Z" fill="white"/>
<path opacity="0.07" d="M20.8831 696.232H15.7014V701.406H20.8831V696.232Z" fill="white"/>
<path opacity="0.02" d="M6.71997 710.2H1.53833V715.374H6.71997V710.2Z" fill="white"/>
<path opacity="0.14" d="M13.8015 710.2H8.61993V715.374H13.8015V710.2Z" fill="white"/>
<path opacity="0.02" d="M13.8015 724.341H8.61993V729.514H13.8015V724.341Z" fill="white"/>
<path opacity="0.06" d="M13.8015 731.411H8.61993V736.584H13.8015V731.411Z" fill="white"/>
<path opacity="0.04" d="M13.8015 752.622H8.61993V757.795H13.8015V752.622Z" fill="white"/>
<path opacity="0.04" d="M13.8015 759.692H8.61993V764.865H13.8015V759.692Z" fill="white"/>
<path opacity="0.18" d="M20.8831 766.762H15.7014V771.936H20.8831V766.762Z" fill="white"/>
<g opacity="0.7">
<path opacity="0.7" d="M35.2188 650.879H29.8645V777.971H35.2188V650.879Z" fill="#E6E6E6"/>
<path opacity="0.7" d="M44.373 650.879H39.0187V777.971H44.373V650.879Z" fill="#E6E6E6"/>
<path opacity="0.7" d="M53.6999 650.879H48.3456V777.971H53.6999V650.879Z" fill="#E6E6E6"/>
<path opacity="0.7" d="M63.0268 650.879H57.6725V777.971H63.0268V650.879Z" fill="#E6E6E6"/>
<path opacity="0.7" d="M72.3537 650.879H66.9994V777.971H72.3537V650.879Z" fill="#E6E6E6"/>
</g>
<path d="M107.416 777.971H-0.0161133L107.416 684.506V777.971Z" fill="#333333"/>
<path d="M98.2618 761.417H61.2997V782.11H98.2618V761.417Z" fill="#4D4D4D"/>
<path d="M95.4983 756.588H64.0632V766.245H95.4983V756.588Z" fill="#4D4D4D"/>
<path d="M91.8712 759.52H67.5176L75.9809 745.379H83.4078L91.8712 759.52Z" fill="#4D4D4D"/>
<path d="M88.4168 765.555H71.1448V778.144H88.4168V765.555Z" fill="white"/>
<path d="M90.4893 770.556H69.072V773.143H90.4893V770.556Z" fill="#4D4D4D"/>
<path d="M263.21 795.388C263.728 808.839 253.365 820.392 239.72 820.91C226.248 821.427 214.675 810.908 214.157 797.457C213.639 784.007 224.002 772.453 237.647 771.936C251.119 771.418 262.519 781.937 263.21 795.388Z" fill="#333333"/>
<path d="M259.064 788.662C259.41 796.422 253.365 802.975 245.592 803.32C237.82 803.665 231.257 797.63 230.911 789.87C230.566 782.11 236.611 775.557 244.383 775.212C252.156 774.867 258.719 780.902 259.064 788.662Z" fill="#4D4D4D"/>
<path d="M16.5651 770.039C16.5651 773.315 13.8015 776.074 10.5198 776.074C7.23814 776.074 4.47461 773.315 4.47461 770.039C4.47461 766.762 7.23814 764.003 10.5198 764.003C13.8015 764.003 16.5651 766.59 16.5651 770.039Z" fill="#333333"/>
<path d="M18.6377 776.074C18.6377 780.558 15.0106 784.179 10.5198 784.179C6.02912 784.179 2.40198 780.558 2.40198 776.074C2.40198 771.591 6.02912 767.969 10.5198 767.969C15.0106 767.969 18.6377 771.591 18.6377 776.074Z" fill="#333333"/>
<path d="M14.4924 764.865C14.4924 767.107 12.7652 769.004 10.5199 769.004C8.27451 769.004 6.5473 767.107 6.5473 764.865C6.5473 762.624 8.27451 760.727 10.5199 760.727C12.7652 760.727 14.4924 762.624 14.4924 764.865Z" fill="#333333"/>
<path d="M15.7014 770.039C15.7014 771.936 14.147 773.488 12.2471 773.488C10.3471 773.488 8.79266 771.936 8.79266 770.039C8.79266 768.142 10.3471 766.59 12.2471 766.59C14.147 766.59 15.7014 768.142 15.7014 770.039Z" fill="#4D4D4D"/>
<path d="M13.9742 765.383C13.9742 766.762 12.7652 767.969 11.3835 767.969C10.0017 767.969 8.79266 766.762 8.79266 765.383C8.79266 764.003 10.0017 762.796 11.3835 762.796C12.7652 762.624 13.9742 763.831 13.9742 765.383Z" fill="#4D4D4D"/>
<path d="M131.77 782.627C131.77 786.938 128.142 790.559 123.824 790.559C119.506 790.559 115.879 786.938 115.879 782.627C115.879 778.316 119.334 774.694 123.824 774.694C128.142 774.694 131.77 778.316 131.77 782.627Z" fill="#333333"/>
<path d="M129.006 775.902C129.006 778.833 126.761 781.248 123.824 781.248C120.888 781.248 118.643 778.833 118.643 775.902C118.643 772.97 120.888 770.556 123.824 770.556C126.588 770.556 129.006 772.97 129.006 775.902Z" fill="#333333"/>
<path d="M128.315 776.419C128.315 778.316 126.761 779.868 124.861 779.868C122.961 779.868 121.406 778.316 121.406 776.419C121.406 774.522 122.961 772.97 124.861 772.97C126.761 772.97 128.315 774.522 128.315 776.419Z" fill="#4D4D4D"/>
<path d="M121.061 788.49C120.197 796.768 112.77 802.631 104.653 801.768C96.3619 800.906 90.4894 793.491 91.353 785.386C92.2166 777.109 99.6436 771.246 107.761 772.108C115.879 772.97 121.925 780.213 121.061 788.49Z" fill="#333333"/>
<path d="M117.261 775.212C116.743 780.73 111.907 784.869 106.38 784.352C101.025 783.834 97.0527 778.834 97.5709 773.315C98.0891 767.797 102.925 763.658 108.452 764.176C113.979 764.693 117.779 769.694 117.261 775.212Z" fill="#333333"/>
<path d="M115.879 776.247C115.534 779.868 112.252 782.455 108.798 782.11C105.171 781.765 102.58 778.489 102.925 775.04C103.271 771.418 106.552 768.832 110.007 769.177C113.634 769.521 116.225 772.798 115.879 776.247Z" fill="#4D4D4D"/>
<path d="M199.303 781.248C199.303 788.835 193.258 794.871 185.658 794.871C178.058 794.871 172.013 788.835 172.013 781.248C172.013 773.66 178.058 767.625 185.658 767.625C193.085 767.625 199.303 773.66 199.303 781.248Z" fill="#333333"/>
<path d="M194.467 769.521C194.467 774.695 190.494 778.833 185.486 778.833C180.477 778.833 176.504 774.695 176.504 769.521C176.504 764.348 180.477 760.209 185.486 760.209C190.494 760.382 194.467 764.52 194.467 769.521Z" fill="#333333"/>
<path d="M197.231 781.248C197.231 785.559 193.776 789.18 189.285 789.18C184.967 789.18 181.34 785.731 181.34 781.248C181.34 776.937 184.795 773.315 189.285 773.315C193.603 773.488 197.231 776.937 197.231 781.248Z" fill="#4D4D4D"/>
<path d="M193.258 770.728C193.258 774.005 190.667 776.764 187.213 776.764C183.931 776.764 181.168 774.177 181.168 770.728C181.168 767.452 183.758 764.865 187.213 764.865C190.667 764.693 193.258 767.452 193.258 770.728Z" fill="#4D4D4D"/>
<path d="M169.077 792.628C169.077 802.285 161.132 810.218 151.46 810.218C141.787 810.218 133.842 802.285 133.842 792.628C133.842 782.972 141.787 775.039 151.46 775.039C161.132 775.039 169.077 782.799 169.077 792.628Z" fill="#333333"/>
<path d="M163.032 777.454C163.032 784.006 157.85 789.352 151.46 789.352C145.069 789.352 139.887 784.006 139.887 777.454C139.887 770.901 145.069 765.555 151.46 765.555C157.85 765.555 163.032 770.901 163.032 777.454Z" fill="#333333"/>
<path d="M161.477 779.006C161.477 783.317 158.023 786.593 153.705 786.593C149.387 786.593 145.932 783.144 145.932 779.006C145.932 774.695 149.387 771.246 153.705 771.246C158.023 771.246 161.477 774.695 161.477 779.006Z" fill="#4D4D4D"/>
<path d="M211.739 779.523C211.739 781.592 210.185 783.144 208.285 783.144C206.385 783.144 204.83 781.592 204.83 779.523C204.83 777.454 206.385 775.902 208.285 775.902C210.185 775.902 211.739 777.454 211.739 779.523Z" fill="#333333"/>
<path d="M286.009 775.212C286.009 781.938 280.654 787.283 273.918 787.283C267.182 787.283 261.828 781.938 261.828 775.212C261.828 768.487 267.182 763.141 273.918 763.141C280.654 763.141 286.009 768.487 286.009 775.212Z" fill="#333333"/>
<path d="M290.154 787.283C290.154 796.251 282.9 803.493 273.918 803.493C264.937 803.493 257.683 796.251 257.683 787.283C257.683 778.316 264.937 771.074 273.918 771.074C282.9 771.074 290.154 778.316 290.154 787.283Z" fill="#333333"/>
<path d="M281.864 764.866C281.864 769.349 278.236 773.143 273.918 773.143C269.6 773.143 265.973 769.522 265.973 764.866C265.973 760.382 269.6 756.588 273.918 756.588C278.236 756.588 281.864 760.382 281.864 764.866Z" fill="#333333"/>
<path d="M284.109 775.212C284.109 779.006 281 782.11 277.2 782.11C273.4 782.11 270.291 779.006 270.291 775.212C270.291 771.418 273.4 768.314 277.2 768.314C281 768.314 284.109 771.418 284.109 775.212Z" fill="#4D4D4D"/>
<path d="M280.827 765.9C280.827 768.832 278.409 771.246 275.473 771.246C272.537 771.246 270.119 768.832 270.119 765.9C270.119 762.969 272.537 760.555 275.473 760.555C278.409 760.555 280.827 762.969 280.827 765.9Z" fill="#4D4D4D"/>
<path d="M331.089 790.387C331.089 799.354 323.835 806.597 314.853 806.597C305.872 806.597 298.617 799.354 298.617 790.387C298.617 781.42 305.872 774.177 314.853 774.177C323.835 774.35 331.089 781.593 331.089 790.387Z" fill="#333333"/>
<path d="M325.389 776.592C325.389 782.627 320.553 787.628 314.853 787.628C308.98 787.628 304.144 782.8 304.144 776.592C304.144 770.556 308.98 765.728 314.853 765.728C320.725 765.728 325.389 770.556 325.389 776.592Z" fill="#333333"/>
<path d="M324.007 777.972C324.007 781.938 320.898 785.042 316.926 785.042C312.953 785.042 309.844 781.938 309.844 777.972C309.844 774.005 312.953 770.901 316.926 770.901C320.898 770.901 324.007 774.005 324.007 777.972Z" fill="#4D4D4D"/>
<path d="M595.351 796.94C595.351 811.77 583.433 823.669 568.579 823.669C553.725 823.669 541.807 811.77 541.807 796.94C541.807 782.11 553.725 770.211 568.579 770.211C583.433 770.211 595.351 782.282 595.351 796.94Z" fill="#333333"/>
<path d="M591.378 789.525C591.378 797.975 584.469 804.873 576.006 804.873C567.543 804.873 560.634 797.975 560.634 789.525C560.634 781.075 567.543 774.178 576.006 774.178C584.469 774.178 591.378 781.075 591.378 789.525Z" fill="#4D4D4D"/>
<path d="M629.722 785.386C629.722 797.802 619.532 807.977 607.096 807.977C594.66 807.977 584.469 797.802 584.469 785.386C584.469 772.97 594.66 762.796 607.096 762.796C619.704 762.796 629.722 772.798 629.722 785.386Z" fill="#333333"/>
<path d="M626.268 779.006C626.268 786.249 620.395 791.939 613.314 791.939C606.059 791.939 600.36 786.076 600.36 779.006C600.36 771.936 606.232 766.073 613.314 766.073C620.395 766.073 626.268 771.936 626.268 779.006Z" fill="#4D4D4D"/>
<path d="M572.034 789.008C572.034 801.424 561.843 811.598 549.407 811.598C536.971 811.598 526.781 801.424 526.781 789.008C526.781 776.592 536.971 766.417 549.407 766.417C562.016 766.417 572.034 776.419 572.034 789.008Z" fill="#333333"/>
<path d="M568.579 782.627C568.579 789.87 562.707 795.56 555.625 795.56C548.544 795.56 542.671 789.697 542.671 782.627C542.671 775.385 548.544 769.694 555.625 769.694C562.707 769.694 568.579 775.385 568.579 782.627Z" fill="#4D4D4D"/>
<path d="M502.255 794.181C502.255 806.597 492.064 816.771 479.628 816.771C467.192 816.771 457.002 806.597 457.002 794.181C457.002 781.765 467.192 771.591 479.628 771.591C492.237 771.591 502.255 781.765 502.255 794.181Z" fill="#333333"/>
<path d="M498.8 787.801C498.8 795.044 492.928 800.734 485.846 800.734C478.592 800.734 472.892 794.871 472.892 787.801C472.892 780.558 478.765 774.868 485.846 774.868C492.928 774.868 498.8 780.731 498.8 787.801Z" fill="#4D4D4D"/>
<path d="M474.965 790.387C474.965 802.803 464.774 812.978 452.338 812.978C439.902 812.978 429.712 802.803 429.712 790.387C429.712 777.971 439.902 767.797 452.338 767.797C464.774 767.797 474.965 777.799 474.965 790.387Z" fill="#333333"/>
<path d="M471.51 784.007C471.51 791.25 465.638 796.94 458.556 796.94C451.302 796.94 445.602 791.077 445.602 784.007C445.602 776.764 451.475 771.074 458.556 771.074C465.638 771.074 471.51 776.764 471.51 784.007Z" fill="#4D4D4D"/>
<path d="M492.582 786.766C492.582 794.008 486.71 799.699 479.628 799.699C472.374 799.699 466.674 793.836 466.674 786.766C466.674 779.523 472.547 773.832 479.628 773.832C486.882 773.832 492.582 779.695 492.582 786.766Z" fill="#4D4D4D"/>
<path d="M396.032 787.8C396.032 795.905 389.468 802.63 381.178 802.63C373.06 802.63 366.324 796.078 366.324 787.8C366.324 779.695 372.887 772.97 381.178 772.97C389.468 773.142 396.032 779.695 396.032 787.8Z" fill="#333333"/>
<path d="M393.786 783.661C393.786 788.318 389.986 792.111 385.323 792.111C380.66 792.111 376.86 788.318 376.86 783.661C376.86 779.005 380.66 775.212 385.323 775.212C389.986 775.212 393.786 779.005 393.786 783.661Z" fill="#4D4D4D"/>
<path d="M7.92905 776.074C7.92905 782.972 2.40198 788.49 -4.50683 788.49C-11.4156 788.49 -16.9427 782.972 -16.9427 776.074C-16.9427 769.176 -11.4156 763.658 -4.50683 763.658C2.22926 763.486 7.92905 769.176 7.92905 776.074Z" fill="#333333"/>
<path d="M12.0743 788.49C12.0743 797.802 4.64736 805.217 -4.67952 805.217C-14.0064 805.217 -21.4333 797.802 -21.4333 788.49C-21.4333 779.178 -14.0064 771.763 -4.67952 771.763C4.64736 771.763 12.0743 779.178 12.0743 788.49Z" fill="#333333"/>
<path d="M3.61105 765.383C3.61105 770.039 -0.0160751 773.832 -4.67952 773.832C-9.17024 773.832 -12.9701 770.039 -12.9701 765.383C-12.9701 760.727 -9.34296 756.933 -4.67952 756.933C-0.0160751 756.933 3.61105 760.727 3.61105 765.383Z" fill="#333333"/>
<path d="M6.02902 776.074C6.02902 780.04 2.74734 783.317 -1.22523 783.317C-5.19781 783.317 -8.47949 780.04 -8.47949 776.074C-8.47949 772.108 -5.19781 768.831 -1.22523 768.831C2.74734 768.831 6.02902 772.108 6.02902 776.074Z" fill="#4D4D4D"/>
<path d="M2.57465 766.417C2.57465 769.349 0.156556 771.936 -2.95242 771.936C-5.88868 771.936 -8.47949 769.521 -8.47949 766.417C-8.47949 763.486 -6.0614 760.899 -2.95242 760.899C-0.0161648 760.899 2.57465 763.313 2.57465 766.417Z" fill="#4D4D4D"/>
<path d="M66.8267 780.903C66.8267 786.421 62.336 790.905 56.8089 790.905C51.2818 790.905 46.7911 786.421 46.7911 780.903C46.7911 775.385 51.2818 770.901 56.8089 770.901C62.336 770.901 66.8267 775.385 66.8267 780.903Z" fill="#333333"/>
<path d="M63.3723 772.281C63.3723 776.075 60.436 779.179 56.8089 779.179C53.1817 779.179 50.2455 776.075 50.2455 772.281C50.2455 768.487 53.1817 765.383 56.8089 765.383C60.436 765.556 63.3723 768.487 63.3723 772.281Z" fill="#333333"/>
<path d="M65.2722 780.903C65.2722 784.179 62.6814 786.766 59.3997 786.766C56.118 786.766 53.5272 784.179 53.5272 780.903C53.5272 777.799 56.118 775.212 59.3997 775.212C62.6814 775.04 65.2722 777.626 65.2722 780.903Z" fill="#4D4D4D"/>
<path d="M62.5087 773.143C62.5087 775.557 60.6088 777.454 58.1907 777.454C55.7726 777.454 53.8727 775.557 53.8727 773.143C53.8727 770.729 55.7726 768.832 58.1907 768.832C60.6088 768.659 62.5087 770.729 62.5087 773.143Z" fill="#4D4D4D"/>
</g>
</g>
<defs>
<clipPath id="clip0">
<rect x="-399" y="0.194336" width="1127" height="776" fill="white"/>
</clipPath>
</defs>
</svg>
